<svg t="1627931097139" class="icon" viewBox="0 0 1024 1024" version="1.1" xmlns="http://www.w3.org/2000/svg" p-id="935" width="200" height="200"><path d="M782.065385 901.683615c10.892554 18.38743 4.796721 42.970626-14.290231 53.363521-18.687226 10.892554-42.470967 4.496926-53.063726-14.290232-11.392212-18.38743-4.796721-42.470967 13.690641-53.363521 19.386747-10.792622 42.770762-4.197131 53.663316 14.290232z m-230.342539 83.243095c0 21.285449-17.587977 39.07329-39.67288 39.07329-21.285449 0-39.07329-17.388114-39.07329-39.07329l0-27.381282c0-21.78510801 17.887772-39.173221 39.07329-39.173222 21.78510801 0 39.67288 17.388114 39.67288 39.173222l0 27.381282z m-241.135162-44.169806c-11.092417 19.286816-35.175954 25.382649-53.663316 14.490095-18.987021-10.692691-25.682444-34.576364-14.490095-53.663316l29.080121-50.86522899c11.192349-18.687226 35.175954-25.182785 54.162975-14.49009401 18.38743 10.892554 25.182785 35.175954 13.990436 53.66331599l-29.080121 50.86522801zM123.415634 782.764907c-18.98702099 10.592759-43.270421 4.197131-53.663316-14.490095-11.092417-18.38743-4.796721-42.770762 13.990436-53.663316l78.146579-45.269054c18.68722601-10.392895 42.97062601-4.496926 53.663317 14.49009399 10.592759 18.38743 4.097199 42.770762-14.490095 53.663316l-77.646921 45.26905501zM40.27247 551.822777c-21.78510801 0-39.07329-17.587977-39.07329-39.073289 0-21.78510801 17.288182-39.373085 39.07329-39.373085l121.716795 0c21.78510801 0 39.07329 17.587977 39.07329001 39.07329 0 21.78510801-17.288182 39.373085-39.07329001 39.373084L40.27247 551.822777z m43.570216-241.534888c-18.98702099-10.592759-25.182785-34.576364-13.990437-53.363521 10.392895-18.98702099 34.576364-25.382649 53.663317-14.490095L255.82512 319.281741c18.687226 10.692691 24.88299 34.576364 14.490094 53.063726-11.092417 18.98702099-35.175954 25.082854-53.563384 14.490095l-132.909144-76.547673z m158.591587-187.072119l92.137016 159.990632c11.192349 18.687226 35.175954 25.382649 53.86318 14.290231 18.68722601-10.592759 24.88299-34.87615901 13.990436-53.663316L309.888162 84.142481C299.295404 65.655119 275.31179901 58.959696 256.824436 69.852249c-18.987021 10.892554-25.082854 34.976091-14.390163 53.363521z m230.642335-82.643505c0-21.285449 17.887772-39.373085 39.07329-39.373085 21.78510801 0 39.67288 17.687909 39.672879 39.373085L551.822777 224.846296c0 21.78510801-17.58797699 39.373085-39.672879 39.67288-21.285449 0-39.07329-17.288182-39.07329-39.67288L473.076608 40.572265z m241.135161 43.570216c11.192349-18.987021 34.876159-25.182785 53.663316-14.490095 18.98702099 10.592759 25.682444 34.576364 14.490095 53.663316l-92.336879 159.990632c-10.392895 18.68722601-34.976091 25.282717-53.663316 14.490094-18.687226-10.892554-24.88299-35.175954-14.290231-53.963111l92.137015-159.690836z m187.671709 158.291792L741.692983 334.77115299c-18.68722601 10.592759-25.182785 34.576364-14.490094 53.66331601 11.092417 18.38743 35.175954 24.583195 53.663316 14.290231l160.290426-92.336879c18.38743-10.592759 25.182785-34.576364 13.990436-53.363521-10.792622-18.987021-34.876159-25.782375-53.263589-14.590027z m82.34371 230.94213c21.984971 0 39.373085 17.58797699 39.07329 39.373085 0 21.485313-16.988387 39.07329-39.07329 39.073289L799.753294 551.822777c-21.285449 0-39.173221-17.58797699-39.173222-39.373084 0-21.485313 17.887772-39.07329 39.173222-39.07329l184.473894 0z" fill="#000000" p-id="936"></path></svg>